<svg width="21" height="21" viewBox="0 0 21 21" fill="none" xmlns="http://www.w3.org/2000/svg">
<rect width="21" height="21" fill="#E5E5E5"/>
<g clip-path="url(#clip0_0_1)">
<g filter="url(#filter0_i_0_1)">
<rect x="-1450" y="-71.972" width="1920" height="77.74" fill="url(#paint0_linear_0_1)"/>
</g>
<rect x="-1450" y="-243" width="1920" height="6054" fill="#F6F9FC"/>
<mask id="mask0_0_1" style="mask-type:alpha" maskUnits="userSpaceOnUse" x="-1450" y="-243" width="1920" height="800">
<rect width="1920" height="800" transform="matrix(1 0 0 -1 -1450 557)" fill="url(#paint1_linear_0_1)"/>
</mask>
<g mask="url(#mask0_0_1)">
<rect width="1920" height="800" transform="matrix(1 0 0 -1 -1450 557)" fill="url(#paint2_linear_0_1)"/>
<g opacity="0.5">
<path d="M647 557L-28.5157 557L424.987 -251L647 -251L647 557Z" fill="url(#paint3_linear_0_1)"/>
<path d="M-572.245 -251L103.271 -251L-350.232 557L-572.245 557L-572.245 -251Z" fill="url(#paint4_linear_0_1)"/>
</g>
<circle cx="-435.5" cy="230.5" r="469.5" stroke="#F8D72F" stroke-opacity="0.1" stroke-width="6"/>
<g filter="url(#filter1_bd_0_1)">
<rect x="-281" y="-93" width="428" height="582" rx="15" fill="white" fill-opacity="0.9" shape-rendering="crispEdges"/>
</g>
</g>
<rect x="-253" y="8" width="381" height="7" rx="3.5" fill="#ECECEC"/>
<line x1="3.2" y1="-8.74228e-09" x2="3.2" y2="4" stroke="#F2F2F2" stroke-width="0.4"/>
<line x1="7.2" y1="-4" x2="7.2" y2="4" stroke="#F2F2F2" stroke-width="0.4"/>
<line x1="11.2" y1="-8.74228e-09" x2="11.2" y2="4" stroke="#F2F2F2" stroke-width="0.4"/>
<line x1="15.2" y1="-8.74228e-09" x2="15.2" y2="4" stroke="#F2F2F2" stroke-width="0.4"/>
<line x1="19.2" y1="-8.74228e-09" x2="19.2" y2="4" stroke="#F2F2F2" stroke-width="0.4"/>
<rect x="-253" y="8" width="264" height="7" rx="3.5" fill="url(#paint5_linear_0_1)"/>
<circle cx="10.5" cy="10.5" r="10.5" fill="#FFA147"/>
<path d="M15.8492 10.6534L13.1936 8.14633C13.0958 8.04876 12.9737 8 12.827 8C12.6803 8 12.5582 8.04882 12.4604 8.14633L12.1508 8.4352C12.0503 8.5302 12.0001 8.64568 12.0001 8.78175C12.0001 8.91525 12.0503 9.0321 12.1508 9.1322L14.1303 11L12.1507 12.8717C12.0502 12.9667 12 13.0822 12 13.2182C12 13.3517 12.0502 13.4686 12.1507 13.5687L12.4603 13.8575C12.5608 13.9525 12.683 14 12.8269 14C12.9708 14 13.0931 13.9525 13.1935 13.8575L15.8492 11.3504C15.9497 11.2503 16 11.1335 16 11C16 10.8639 15.9497 10.7484 15.8492 10.6534Z" fill="white"/>
<path d="M5.15081 11.3466L7.80642 13.8537C7.90422 13.9512 8.02634 14 8.17303 14C8.31972 14 8.44185 13.9512 8.53964 13.8537L8.8492 13.5648C8.9497 13.4698 8.99994 13.3543 8.99994 13.2183C8.99994 13.0848 8.94971 12.9679 8.8492 12.8678L6.86966 11L8.84929 9.12833C8.94975 9.03333 9 8.91785 9 8.78176C9 8.64828 8.94977 8.53139 8.84929 8.43133L8.5397 8.14249C8.43922 8.04749 8.31697 8 8.17309 8C8.02915 8 7.90693 8.04749 7.80648 8.14249L5.15081 10.6496C5.05029 10.7497 5 10.8665 5 11C4.99999 11.1361 5.05029 11.2516 5.15081 11.3466Z" fill="white"/>
</g>
<defs>
<filter id="filter0_i_0_1" x="-1452" y="-71.972" width="1922" height="77.74" filterUnits="userSpaceOnUse" color-interpolation-filters="sRGB">
<feFlood flood-opacity="0" result="BackgroundImageFix"/>
<feBlend mode="normal" in="SourceGraphic" in2="BackgroundImageFix" result="shape"/>
<feColorMatrix in="SourceAlpha" type="matrix" values="0 0 0 0 0 0 0 0 0 0 0 0 0 0 0 0 0 0 127 0" result="hardAlpha"/>
<feOffset dx="-2"/>
<feGaussianBlur stdDeviation="11"/>
<feComposite in2="hardAlpha" operator="arithmetic" k2="-1" k3="1"/>
<feColorMatrix type="matrix" values="0 0 0 0 0.7689 0 0 0 0 0.854123 0 0 0 0 0.954167 0 0 0 0.25 0"/>
<feBlend mode="normal" in2="shape" result="effect1_innerShadow_0_1"/>
</filter>
<filter id="filter1_bd_0_1" x="-325" y="-133" width="516" height="670" filterUnits="userSpaceOnUse" color-interpolation-filters="sRGB">
<feFlood flood-opacity="0" result="BackgroundImageFix"/>
<feGaussianBlur in="BackgroundImage" stdDeviation="6"/>
<feComposite in2="SourceAlpha" operator="in" result="effect1_backgroundBlur_0_1"/>
<feColorMatrix in="SourceAlpha" type="matrix" values="0 0 0 0 0 0 0 0 0 0 0 0 0 0 0 0 0 0 127 0" result="hardAlpha"/>
<feOffset dy="4"/>
<feGaussianBlur stdDeviation="22"/>
<feComposite in2="hardAlpha" operator="out"/>
<feColorMatrix type="matrix" values="0 0 0 0 0 0 0 0 0 0 0 0 0 0 0 0 0 0 0.05 0"/>
<feBlend mode="normal" in2="effect1_backgroundBlur_0_1" result="effect2_dropShadow_0_1"/>
<feBlend mode="normal" in="SourceGraphic" in2="effect2_dropShadow_0_1" result="shape"/>
</filter>
<linearGradient id="paint0_linear_0_1" x1="-490" y1="-33.1021" x2="-490" y2="5.76793" gradientUnits="userSpaceOnUse">
<stop stop-color="#F6F9FC"/>
<stop offset="1" stop-color="white"/>
</linearGradient>
<linearGradient id="paint1_linear_0_1" x1="960" y1="0" x2="960" y2="800" gradientUnits="userSpaceOnUse">
<stop stop-color="#FFC83E"/>
<stop offset="1" stop-color="#FF9F47"/>
</linearGradient>
<linearGradient id="paint2_linear_0_1" x1="1383.5" y1="315" x2="415" y2="-13.5" gradientUnits="userSpaceOnUse">
<stop stop-color="#FFC83E"/>
<stop offset="1" stop-color="#FF9F47"/>
</linearGradient>
<linearGradient id="paint3_linear_0_1" x1="-655.394" y1="-85.0941" x2="335.994" y2="19.7691" gradientUnits="userSpaceOnUse">
<stop stop-color="white"/>
<stop offset="1" stop-color="white" stop-opacity="0"/>
</linearGradient>
<linearGradient id="paint4_linear_0_1" x1="730.15" y1="391.094" x2="-261.239" y2="286.231" gradientUnits="userSpaceOnUse">
<stop stop-color="white"/>
<stop offset="1" stop-color="white" stop-opacity="0"/>
</linearGradient>
<linearGradient id="paint5_linear_0_1" x1="-154.818" y1="14.16" x2="-151.09" y2="-6.73531" gradientUnits="userSpaceOnUse">
<stop stop-color="#FFC83E"/>
<stop offset="1" stop-color="#FF9F47"/>
</linearGradient>
<clipPath id="clip0_0_1">
<rect width="1920" height="6011" fill="white" transform="translate(-1450 -243)"/>
</clipPath>
</defs>
</svg>
